<?xml version="1.0" encoding="utf-8"?><svg xmlns="http://www.w3.org/2000/svg" xmlns:xlink="http://www.w3.org/1999/xlink"><symbol viewBox="0 0 129 129" id="arrowbottom" xmlns="http://www.w3.org/2000/svg"><path d="M121.3 34.6c-1.6-1.6-4.2-1.6-5.8 0l-51 51.1-51.1-51.1c-1.6-1.6-4.2-1.6-5.8 0-1.6 1.6-1.6 4.2 0 5.8l53.9 53.9c.8.8 1.8 1.2 2.9 1.2 1 0 2.1-.4 2.9-1.2l53.9-53.9c1.7-1.6 1.7-4.2.1-5.8z"/></symbol><symbol viewBox="0 0 46 46" id="arrowtoleft" xmlns="http://www.w3.org/2000/svg"><path d="M34.997 40.094a3.484 3.484 0 010 4.893 3.404 3.404 0 01-4.846 0l-19.148-19.54a3.486 3.486 0 010-4.895L30.151 1.014a3.402 3.402 0 014.846 0 3.484 3.484 0 010 4.893L19.294 23l15.703 17.094z"/></symbol><symbol viewBox="0 0 46 46" id="arrowtoright" xmlns="http://www.w3.org/2000/svg"><path d="M11.003 40.094a3.484 3.484 0 000 4.893 3.401 3.401 0 004.844 0l19.15-19.539a3.486 3.486 0 000-4.895L15.847 1.014c-1.338-1.352-3.506-1.352-4.844 0s-1.338 3.541-.002 4.893L26.706 23 11.003 40.094z"/></symbol><symbol viewBox="0 0 426.667 426.667" id="busket" xmlns="http://www.w3.org/2000/svg"><path d="M197.918 309.218c-17.173 0-31.023 13.833-31.023 31.023 0 17.084 13.85 30.959 31.023 30.959 17.101 0 31.031-13.875 31.031-30.959 0-17.19-13.93-31.023-31.031-31.023zm126.438 0c-17.143 0-31.019 13.833-31.019 31.023 0 17.084 13.875 30.959 31.019 30.959 17.101 0 31.01-13.875 31.01-30.959 0-17.19-13.909-31.023-31.01-31.023zm25.319-138.005H172.548l7.07 23.274H342.66zm-21.09 69.747l7.031-23.232H186.684l7.057 23.232z"/><path d="M155.2 113.707l10.257 34.295h214.985l-35.051 116.079H176.977L113.783 55.467H0v34.035h88.269l63.338 208.853H370.65l56.017-184.648z"/></symbol><symbol viewBox="0 0 284.929 284.929" id="chevron-down" xmlns="http://www.w3.org/2000/svg"><path d="M282.082 76.511l-14.274-14.273c-1.902-1.906-4.093-2.856-6.57-2.856-2.471 0-4.661.95-6.563 2.856L142.466 174.441 30.262 62.241c-1.903-1.906-4.093-2.856-6.567-2.856-2.475 0-4.665.95-6.567 2.856L2.856 76.515C.95 78.417 0 80.607 0 83.082c0 2.473.953 4.663 2.856 6.565l133.043 133.046c1.902 1.903 4.093 2.854 6.567 2.854s4.661-.951 6.562-2.854L282.082 89.647c1.902-1.903 2.847-4.093 2.847-6.565 0-2.475-.945-4.665-2.847-6.571z"/></symbol><symbol viewBox="0 0 284.929 284.929" id="chevron-up" xmlns="http://www.w3.org/2000/svg"><path d="M282.082 195.285L149.028 62.24c-1.901-1.903-4.088-2.856-6.562-2.856s-4.665.953-6.567 2.856L2.856 195.285C.95 197.191 0 199.378 0 201.853c0 2.474.953 4.664 2.856 6.566l14.272 14.271c1.903 1.903 4.093 2.854 6.567 2.854s4.664-.951 6.567-2.854l112.204-112.202 112.208 112.209c1.902 1.903 4.093 2.848 6.563 2.848 2.478 0 4.668-.951 6.57-2.848l14.274-14.277c1.902-1.902 2.847-4.093 2.847-6.566.001-2.476-.944-4.666-2.846-6.569z"/></symbol><symbol viewBox="0 0 512 512" id="close" xmlns="http://www.w3.org/2000/svg"><style/><path d="M268.064 256.75l138.593-138.593a8 8 0 10-11.314-11.313L256.75 245.436 118.157 106.843a8 8 0 00-11.313 0 7.998 7.998 0 000 11.313L245.436 256.75 106.843 395.343a7.999 7.999 0 000 11.314c1.562 1.562 3.609 2.343 5.657 2.343s4.095-.781 5.657-2.343L256.75 268.064l138.593 138.593c1.563 1.562 3.609 2.343 5.657 2.343s4.095-.781 5.657-2.343a8 8 0 000-11.314L268.064 256.75z" id="gcross_copy"/></symbol><symbol viewBox="0 0 22 25" id="customer-service" xmlns="http://www.w3.org/2000/svg"><path d="M11.678 0c.481.082.969.136 1.442.251 1.985.485 3.631 1.485 4.777 3.208.522.786.831 1.655.921 2.594.015.156.063.235.218.295a2.09 2.09 0 011.371 1.979c.009.96.025 1.921-.004 2.88-.029.927-.472 1.609-1.353 1.968a1.64 1.64 0 01-.499.1c-.211.017-.425.006-.637.005-.785-.005-1.056-.177-1.409-.917-.597 1.646-1.43 3.109-2.801 4.216.282.681.66 1.291 1.233 1.766.264.219.565.343.904.407 1.666.315 3.294.745 4.801 1.553.602.323 1.001.786 1.109 1.458.098.609.161 1.223.219 1.837.028.291.01.586.01.879 0 .384-.13.516-.51.517h-1.521c-6.46 0-12.92-.001-19.38.004-.239.001-.431-.046-.568-.248v-1.513c.049-.378.097-.756.147-1.133.116-.866.516-1.529 1.35-1.889.209-.09.408-.205.617-.296a16.899 16.899 0 013.912-1.143c.586-.1 1.028-.386 1.406-.813.366-.412.637-.88.844-1.395-.115-.095-.23-.184-.34-.281-.251-.222-.466-.539-.759-.649-.3-.112-.677-.026-1.02-.025-1.112.001-1.817-.539-2.089-1.61-.059-.234-.095-.474-.137-.685-.331-.041-.664-.026-.955-.128-.88-.307-1.404-1.087-1.407-2.024-.004-.911.001-1.821 0-2.732-.001-.998.477-1.719 1.41-2.099.127-.052.162-.116.174-.245a5.41 5.41 0 01.636-2.134C4.898 1.937 6.665.795 8.862.251 9.334.133 9.823.082 10.304 0h1.374zm9.539 24.205c-.053-.638-.115-1.244-.15-1.851-.044-.768-.447-1.237-1.138-1.55a17.212 17.212 0 00-3.7-1.177c-.642-.13-1.283-.235-1.805-.686-.749-.646-1.234-1.465-1.595-2.366-.08-.201.028-.345.187-.482.364-.312.741-.617 1.06-.972.911-1.012 1.445-2.237 1.875-3.505.504-1.487.615-3.024.423-4.577a5.424 5.424 0 00-1.049-2.646c-1.814-2.405-5.292-2.552-7.377-1.191-1.584 1.034-2.274 2.566-2.403 4.389-.129 1.826.176 3.584.961 5.243.298.629.677 1.221 1.026 1.826.041.07.127.161.193.163.56.013 1.121.007 1.675.007.132-.566.379-.766.93-.771.196-.002.393-.001.589.001.502.003.855.323.856.775.001.456-.345.784-.846.786-.752.003-1.505-.003-2.257-.006h-.248c.176.205.36.351.551.49.182.132.247.294.16.508-.322.791-.737 1.523-1.356 2.126a2.836 2.836 0 01-1.443.778c-.671.136-1.343.28-2.004.458-.939.253-1.85.582-2.701 1.065-.363.206-.578.496-.641.897-.061.393-.124.788-.152 1.184-.026.36-.005.722-.005 1.084h20.384zM18.04 6.211c.002-.013.007-.029.006-.045-.003-.041-.008-.081-.013-.121-.2-1.605-.971-2.901-2.257-3.853-2.423-1.795-5.087-2.05-7.867-.985-1.71.655-2.974 1.831-3.656 3.563-.185.469-.29.956-.323 1.485.186 0 .351-.017.51.005.156.021.307.081.464.126.785-2.929 2.657-4.654 5.713-4.792 3.39-.152 5.549 1.538 6.455 4.747l.968-.13zM4.712 9.781h.001V7.61c-.001-.431-.154-.579-.594-.579-.155 0-.313.02-.465-.002-.613-.088-1.269.487-1.288 1.222-.025 1-.018 2.001-.002 3.001.009.575.373 1.078.899 1.21.285.071.6.033.901.035.389.004.545-.151.547-.544.003-.724.001-1.448.001-2.172zm12.555-.017h.001l-.001 2.22c0 .223.072.458.294.477.408.034.846.067 1.23-.043.546-.157.811-.63.825-1.183.024-.983.02-1.968.002-2.952-.013-.703-.616-1.348-1.306-1.257-.161.021-.326.002-.49.002-.399.001-.555.158-.555.565v2.171zM5.468 12.468c-.146.174-.304.429-.526.603-.168.131-.217.236-.184.433.181 1.064.679 1.486 1.84 1.294l-1.13-2.33z"/></symbol><symbol viewBox="0 0 48 48" id="delivery" xmlns="http://www.w3.org/2000/svg"><path fill-rule="evenodd" clip-rule="evenodd" d="M43 46H5a4 4 0 01-4-4l4-24c.678-3.442 2.668-4 4.877-4h2.652C14.037 7.052 18.602 2 24 2s9.963 5.052 11.471 12h2.652c2.209 0 4.199.558 4.877 4l4 24a4 4 0 01-4 4zM24 4c-4.352 0-8.045 4.178-9.418 10h18.837C32.045 8.178 28.353 4 24 4zm17 14c-.308-1.351-.957-2-2.37-2h-2.828c.123.976.198 1.975.198 3a1 1 0 11-2 0c0-1.027-.069-2.031-.201-3H14.201A22.413 22.413 0 0014 19a1 1 0 11-2 0c0-1.025.075-2.024.197-3H9.369c-1.412 0-2.06.649-2.369 2L3 42a2 2 0 002 2h38a2 2 0 002-2l-4-24z"/></symbol><symbol viewBox="0 0 128 128" id="dots" xmlns="http://www.w3.org/2000/svg"><circle cx="64" cy="90.358" r="9.824"/><circle cx="99.25" cy="90.358" r="9.824"/><circle cx="28.75" cy="90.358" r="9.824"/></symbol><symbol viewBox="0 0 64 64" id="email" xmlns="http://www.w3.org/2000/svg"><path d="M32 0C14.327 0 0 14.327 0 32s14.327 32 32 32 32-14.327 32-32S49.673 0 32 0zm0 62C15.432 62 2 48.568 2 32.001 2 15.432 15.432 2 32 2c16.568 0 30 13.432 30 30.001C62 48.568 48.568 62 32 62z"/><path d="M46 21H18a2 2 0 00-2 2v18a2 2 0 002 2h28a2 2 0 002-2V23a2 2 0 00-2-2zm-1.795 2L32 35 19.891 23h24.314zM18 41V24.006l9.589 9.589L20.061 41H18zm4.985 0l6.081-5.927 1.58 1.579a2 2 0 002.829 0l1.531-1.531L41.087 41H22.985zM46 41h-1.939l-7.527-7.405L46 24.128V41z"/></symbol><symbol viewBox="0 0 30 30" id="fast-delivery" xmlns="http://www.w3.org/2000/svg"><path d="M15.48 12a.508.508 0 00-.347.152l-2.638 2.63-1.625-1.62c-.455-.474-1.19.258-.715.712l1.983 1.978a.506.506 0 00.715 0l2.995-2.987c.33-.32.087-.865-.367-.865zM.5 16h3a.499.499 0 110 1h-3a.499.499 0 110-1zm0-4h3a.499.499 0 110 1h-3a.499.499 0 110-1zm0-4h3a.499.499 0 110 1h-3a.499.499 0 110-1zm24 11c-1.375 0-2.5 1.125-2.5 2.5s1.125 2.5 2.5 2.5 2.5-1.125 2.5-2.5-1.125-2.5-2.5-2.5zm0 1c.834 0 1.5.666 1.5 1.5s-.666 1.5-1.5 1.5-1.5-.666-1.5-1.5.666-1.5 1.5-1.5zm-13-1C10.125 19 9 20.125 9 21.5s1.125 2.5 2.5 2.5 2.5-1.125 2.5-2.5-1.125-2.5-2.5-2.5zm0 1c.834 0 1.5.666 1.5 1.5s-.666 1.5-1.5 1.5-1.5-.666-1.5-1.5.666-1.5 1.5-1.5zm-5-14C5.678 6 5 6.678 5 7.5v11c0 .822.678 1.5 1.5 1.5h2c.676.01.676-1.01 0-1h-2a.488.488 0 01-.5-.5v-11c0-.286.214-.5.5-.5h13c.286 0 .5.214.5.5V19h-5.5c-.66 0-.648 1.01 0 1h7c.66 0 .654-1 0-1H21v-9h4.227L29 15.896V18.5c0 .286-.214.5-.5.5h-1c-.654 0-.654 1 0 1h1c.822 0 1.5-.678 1.5-1.5v-2.75a.505.505 0 00-.078-.27l-4-6.25A.5.5 0 0025.5 9H21V7.5c0-.822-.678-1.5-1.5-1.5z"/></symbol><symbol viewBox="0 0 48 48" id="guarantee" xmlns="http://www.w3.org/2000/svg"><path fill-rule="evenodd" clip-rule="evenodd" d="M36.992 20.483v4.02l-3.485 2.011-2.01 3.482h-.511l.001.004v15l-.002.011a.97.97 0 01-.988.987l-.01.002a.978.978 0 01-.775-.395l-5.225-5.225-5.225 5.225a.977.977 0 01-.775.395l-.01-.002a.97.97 0 01-.988-.987L16.987 45V30l.001-.004h-.507l-2.012-3.482-3.484-2.011v-4.02l-2.011-3.482 2.011-3.483V9.495l3.484-2.013 2.012-3.479h4.025l3.48-2.012 3.484 2.012h4.025l2.01 3.479 3.485 2.013v4.022L39 17.001l-2.008 3.482zM18.987 30v12.619l4.19-4.19c.032-.047.053-.101.095-.144a.975.975 0 01.715-.281.975.975 0 01.715.281c.042.043.062.097.095.144l4.19 4.19V30l.001-.004h-1.517l-3.484 2.013-3.48-2.013h-1.521l.001.004zm16-15.948v-3.403l-2.948-1.703-1.699-2.943h-3.406l-2.945-1.701-2.943 1.701H17.64l-1.701 2.942-2.949 1.703v3.404l-1.701 2.949 1.701 2.947v3.4l2.949 1.702 1.701 2.945h3.405l2.943 1.701 2.945-1.701h3.405l1.699-2.945 2.949-1.702v-3.399l1.7-2.948-1.699-2.949z"/></symbol><symbol viewBox="0 0 64 64" id="location" xmlns="http://www.w3.org/2000/svg"><path d="M39 22c0-3.86-3.14-7-7-7s-7 3.14-7 7 3.14 7 7 7 7-3.14 7-7zm-12 0c0-2.757 2.243-5 5-5s5 2.243 5 5-2.243 5-5 5-5-2.243-5-5z"/><path d="M31.962 64.543l.763-.895C33.597 62.628 54.07 38.457 54 22.731 53.946 10.197 44.077 0 32 0 19.869 0 10 10.199 10 22.735c0 15.721 20.336 39.89 21.202 40.911l.76.897zM32 2c10.979 0 19.951 9.304 20 20.74.06 13.328-16.274 34.091-20.033 38.69C28.228 56.826 12 36.07 12 22.735 12 11.302 20.972 2 32 2z"/></symbol><symbol viewBox="0 0 128 128" id="map" xmlns="http://www.w3.org/2000/svg"><path d="M100.6 50.9h-4c0 17.9-14.6 32.5-32.5 32.5S31.7 68.8 31.7 50.9h-4C27.7 71 44 87.3 64.1 87.3s36.5-16.3 36.5-36.4z"/><path d="M61.7 123.6c.8.6 1.6 1 2.5 1h.1c.2 0 .4 0 .6-.1.4-.1.7-.2.9-.4h.1c5.2-3.2 44.5-45.1 45.8-70.8v-2.4c0-26.2-21.3-47.5-47.5-47.5S16.6 24.7 16.6 50.9c0 .8 0 1.7.1 2.6.7 13.2 11.2 30.1 19.9 42 9.4 12.8 20.5 24.8 25.1 28.1zm-41-70.7c-.1-.5-.1-1.3-.1-2 0-24 19.5-43.5 43.5-43.5s43.5 19.5 43.5 43.5v2.3c-1.2 22.8-37.2 62.7-43.4 67.2h-.1c-6.3-4.1-42.1-44-43.3-67.3l-.1-.2z"/><path d="M45.1 47.2v25.3h37.8V47.2l2.2 2.2 2.8-2.8-5-5V27.3h-9.6V32L64 22.7 40.1 46.6l2.8 2.8 2.2-2.2zm32.1-5.6V31.3h1.6v37.2H49.1V43.2L64 28.3l13.2 13.3z"/></symbol><symbol viewBox="0 0 329.536 329.536" id="medal" xmlns="http://www.w3.org/2000/svg"><path d="M276.646 287.773L232.83 173.169l33.376-15.905c5.22-1.74 6.96-6.96 5.22-10.441l-13.921-38.283 13.921-38.283c1.74-3.48-1.74-8.701-5.22-10.441l-36.543-17.401-17.402-36.542c-1.74-5.22-6.96-6.96-10.441-5.22l-38.283 13.921L125.255.653c-3.48-1.74-8.701 1.74-10.441 5.22L97.413 42.415 60.87 59.817c-5.22 1.74-6.96 6.96-5.22 10.441l13.921 38.283-13.921 38.282c-1.74 3.48 1.74 8.701 5.22 10.441l32.889 15.661L52.17 286.033c0 3.48 0 6.96 1.74 8.701 1.74 3.48 5.22 3.48 8.701 3.48l41.763-6.96 26.102 33.062c1.74 1.74 3.48 3.48 6.96 3.48h1.74c3.48 0 5.22-1.74 6.96-5.22l17.627-47.923 18.915 49.663c1.74 3.48 3.48 5.22 6.96 5.22h1.74c3.48 0 5.22-1.74 6.96-3.48l26.102-33.062 41.763 6.96c3.48 0 6.96-1.74 8.701-3.48 1.742-1.741 3.482-5.221 1.742-8.701zM76.532 71.998l33.062-15.661c1.74 0 3.48-1.74 3.48-3.48l15.661-33.062 33.062 12.181h5.22l33.062-12.181 15.661 33.062c0 1.74 1.74 3.48 3.48 3.48l33.062 15.661-12.181 33.062v5.22l12.181 33.062-33.062 15.661c-1.74 0-3.48 1.74-3.48 3.48l-15.661 33.062-33.062-12.181h-5.22l-33.062 12.181-15.661-33.062c0-1.74-1.74-3.48-3.48-3.48l-33.062-15.661 12.181-33.062v-5.22L76.532 71.998zm59.164 231.436l-20.882-26.102c-1.74-3.48-5.22-3.48-8.701-3.48l-33.062 5.22 32.227-87.893 9.536 20.029c1.74 5.22 6.96 6.96 10.441 5.22l38.283-13.921 8.091 2.941-35.933 97.986zm85.266-31.322c-3.48 0-6.96 1.74-8.701 3.48l-20.882 26.102-18.671-51.368 14.426-39.24 14.687 5.342h3.48c1.74 0 5.22-1.74 6.96-5.22l9.901-20.777 31.861 86.901-33.061-5.22z"/></symbol><symbol viewBox="0 0 401.991 401.991" id="minus" xmlns="http://www.w3.org/2000/svg"><path d="M394 154.174c-5.331-5.33-11.806-7.995-19.417-7.995H27.406c-7.611 0-14.084 2.665-19.414 7.995C2.662 159.503 0 165.972 0 173.587v54.82c0 7.617 2.662 14.086 7.992 19.41 5.33 5.332 11.803 7.994 19.414 7.994h347.176c7.611 0 14.086-2.662 19.417-7.994 5.325-5.324 7.991-11.793 7.991-19.41v-54.82c.001-7.615-2.658-14.087-7.99-19.413z"/></symbol><symbol viewBox="0 0 48 48" id="pay" xmlns="http://www.w3.org/2000/svg"><path fill-rule="evenodd" clip-rule="evenodd" d="M47 40a5 5 0 01-5 5H6a5 5 0 01-5-5V11a4 4 0 014-4h20.171l8.099-2.934a.99.99 0 011.268.589L35.391 7H39a4 4 0 014 4v2a4 4 0 014 4v23zM5 9a2 2 0 000 4h3.634c.013-.005.021-.016.034-.021L19.65 9H5zm29.078.181l-1.062-2.924h-.001L30.964 7h.003l-5.514 2h-.01l-11.039 4h21.062l-1.388-3.819zM41 11a2 2 0 00-2-2h-2.883l1.454 4H41v-2zm2 4H5c-.732 0-1.41-.211-2-.555V40a3 3 0 003 3h36a3 3 0 003-3v-7h-4a4 4 0 010-8h4v-8a2 2 0 00-2-2zm2 16v-4h-4a2 2 0 000 4h4zm-4-3h2v2h-2v-2z"/></symbol><symbol viewBox="0 0 512 512" id="phone" xmlns="http://www.w3.org/2000/svg"><path d="M256 32c123.5 0 224 100.5 224 224S379.5 480 256 480 32 379.5 32 256 132.5 32 256 32m0-32C114.625 0 0 114.625 0 256s114.625 256 256 256 256-114.625 256-256S397.375 0 256 0zm142.719 341.594l-1.438-4.375c-3.375-10.062-14.5-20.562-24.75-23.375L334.688 303.5c-10.25-2.781-24.875.969-32.405 8.5l-13.688 13.688c-49.75-13.469-88.781-52.5-102.219-102.25l13.688-13.688c7.5-7.5 11.25-22.125 8.469-32.406L198.219 139.5c-2.781-10.25-13.344-21.375-23.406-24.75l-4.313-1.438c-10.094-3.375-24.5.031-32 7.563l-20.5 20.5c-3.656 3.625-6 14.031-6 14.063-.688 65.063 24.813 127.719 70.813 173.75 45.875 45.875 108.313 71.345 173.156 70.781.344 0 11.063-2.281 14.719-5.938l20.5-20.5c7.5-7.469 10.874-21.875 7.531-31.937z"/></symbol><symbol viewBox="0 0 401.994 401.994" id="plus" xmlns="http://www.w3.org/2000/svg"><path d="M394 154.175c-5.331-5.33-11.806-7.994-19.417-7.994H255.811V27.406c0-7.611-2.666-14.084-7.994-19.414C242.488 2.666 236.02 0 228.398 0h-54.812c-7.612 0-14.084 2.663-19.414 7.993-5.33 5.33-7.994 11.803-7.994 19.414v118.775H27.407c-7.611 0-14.084 2.664-19.414 7.994S0 165.973 0 173.589v54.819c0 7.618 2.662 14.086 7.992 19.411 5.33 5.332 11.803 7.994 19.414 7.994h118.771V374.59c0 7.611 2.664 14.089 7.994 19.417 5.33 5.325 11.802 7.987 19.414 7.987h54.816c7.617 0 14.086-2.662 19.417-7.987 5.332-5.331 7.994-11.806 7.994-19.417V255.813h118.77c7.618 0 14.089-2.662 19.417-7.994 5.329-5.325 7.994-11.793 7.994-19.411v-54.819c-.002-7.616-2.661-14.087-7.993-19.414z"/></symbol><symbol viewBox="0 0 25 22" id="recommended" xmlns="http://www.w3.org/2000/svg"><path d="M9.239 21.015c-.178.677-.562.984-1.215.984-2.125.003-4.249 0-6.374.001-.443 0-.832-.149-1.182-.41-.289-.214-.408-.512-.411-.87C.039 18.755.005 16.79 0 14.825c-.003-1.153.033-2.307.061-3.461a1.725 1.725 0 011.71-1.669c2.266.002 4.533.001 6.799.011.196 0 .33-.055.437-.214.564-.838 1.13-1.673 1.694-2.51.21-.312.392-.647.631-.933.663-.793.74-1.694.591-2.669a19.922 19.922 0 01-.177-1.891c-.022-.37.156-.667.445-.909.912-.766 2.202-.777 3.258 0 1.193.878 1.791 2.105 1.994 3.542.177 1.254-.002 2.483-.323 3.696l-.062.243c-.003.016 0 .033 0 .082h.262l5.399-.002c1.143-.001 2.068.72 2.25 1.78.13.75-.157 1.379-.648 1.923-.119.132-.144.234-.101.413.229.951-.031 1.803-.588 2.574-.124.171-.178.311-.151.537.116.969-.124 1.853-.712 2.641a.56.56 0 00-.107.379c.274 1.713-.927 2.772-2.32 2.893-.902.079-1.814.046-2.722.048-2.366.005-4.732-.002-7.098.004-.45.001-.877-.056-1.283-.318zm13.438-5.653h-.311c-1.25.001-2.5.002-3.75.001-.15 0-.303.011-.449-.016-.211-.04-.339-.178-.327-.406.012-.224.14-.351.361-.376.091-.011.183-.008.275-.008 1.383.001 2.766.003 4.15-.002.09 0 .215-.025.265-.086.467-.575.71-1.219.567-1.976-.038-.201-.131-.265-.337-.263-1.317.009-2.634.005-3.951.004-.42 0-.625-.137-.617-.412.008-.265.202-.39.614-.39 1.4-.002 2.8-.001 4.2-.005.097 0 .213-.001.287-.05.573-.386.711-1.345.275-1.883-.324-.399-.754-.551-1.258-.55-1.925.005-3.85.003-5.775.004-.772 0-.859-.108-.669-.851.289-1.127.551-2.258.469-3.436-.077-1.098-.407-2.099-1.154-2.926-.515-.57-1.125-.973-1.938-.922-.745.048-1.124.459-1.062 1.19.052.607.143 1.211.223 1.815.116.885-.074 1.691-.595 2.42-.247.346-.485.7-.716 1.058-.677 1.053-1.308 2.138-2.147 3.077a.433.433 0 00-.086.272c-.005 3.053-.005 6.106-.002 9.159 0 .078.011.183.06.231.274.264.58.488.982.488 3.217.003 6.433.004 9.65 0 .484-.001.941-.12 1.346-.398.558-.384.803-1.157.544-1.732h-3.167c-.416 0-.833.006-1.25-.005-.227-.007-.388-.173-.385-.381.002-.221.122-.359.339-.401.08-.016.165-.016.248-.016 1.417-.001 2.833.001 4.25-.005.105-.001.253-.029.308-.101.473-.618.638-1.321.533-2.122zM8.4 10.504h-.335l-6.248-.006c-.531 0-.956.401-.957.933C.854 14.465.853 17.5.854 20.534c.001.385.067.472.435.595.123.042.26.06.391.063.408.008.816.003 1.224.004h5.123c.307 0 .386-.081.387-.385V10.804c0-.09-.008-.18-.014-.3z"/></symbol><symbol viewBox="0 0 612.08 612.08" id="search" xmlns="http://www.w3.org/2000/svg"><path d="M237.927 0C106.555 0 .035 106.52.035 237.893s106.52 237.893 237.893 237.893c50.518 0 97.368-15.757 135.879-42.597l.028-.028 176.432 176.433c3.274 3.274 8.48 3.358 11.839 0l47.551-47.551c3.274-3.274 3.106-8.703-.028-11.838L433.223 373.8c26.84-38.539 42.597-85.39 42.597-135.907C475.82 106.52 369.3 0 237.927 0zm0 419.811c-100.475 0-181.918-81.443-181.918-181.918S137.453 55.975 237.927 55.975s181.918 81.443 181.918 181.918-81.443 181.918-181.918 181.918z"/></symbol><symbol viewBox="0 0 426.667 426.667" id="star" xmlns="http://www.w3.org/2000/svg"><path d="M213.333 10.441l65.916 133.576 147.418 21.419L320 269.41l25.173 146.816-131.84-69.316-131.848 69.316 25.182-146.816L0 165.436l147.409-21.419z"/></symbol><symbol viewBox="0 0 30 30" id="tag" xmlns="http://www.w3.org/2000/svg"><path d="M8.5 17h9a.499.499 0 110 1h-9a.499.499 0 110-1zm4.5 2c-1.1 0-2 .9-2 2s.9 2 2 2 2-.9 2-2-.9-2-2-2zm0 1c.558 0 1 .442 1 1s-.442 1-1 1-1-.442-1-1 .442-1 1-1zm0-8c-1.1 0-2 .9-2 2s.9 2 2 2 2-.9 2-2-.9-2-2-2zm0 1c.558 0 1 .442 1 1s-.442 1-1 1-1-.442-1-1 .442-1 1-1zM25 3c-1.1 0-2 .9-2 2s.9 2 2 2 2-.9 2-2-.9-2-2-2zm0 1c.558 0 1 .442 1 1s-.442 1-1 1-1-.442-1-1 .442-1 1-1zM.446 15.67a1.505 1.505 0 000 2.124l11.76 11.76c.58.582 1.542.587 2.123 0L28.855 14.85c.247-.25.532-.48.768-.856.235-.376.376-.87.376-1.544V1.5c0-.823-.678-1.5-1.5-1.5h-11c-1.158 0-1.824.624-2.35 1.145zm.703.712L15.85 1.856C16.383 1.33 16.658 1 17.5 1h11c.285 0 .5.214.5.5v10.952c0 .547-.093.805-.224 1.013-.13.21-.344.394-.63.684l-14.53 14.7c-.197.2-.5.2-.703-.002l-11.76-11.76a.487.487 0 01-.004-.706z"/></symbol><symbol viewBox="0 0 129 129" id="user" xmlns="http://www.w3.org/2000/svg"><path d="M64.3 71.6c18 0 32.6-14.6 32.6-32.6S82.3 6.5 64.3 6.5 31.7 21.1 31.7 39s14.6 32.6 32.6 32.6zm0-56.6c13.2 0 24 10.8 24 24s-10.8 24-24 24-24-10.8-24-24 10.8-24 24-24zM7.9 122.5h113.2c2.4 0 4.3-1.9 4.3-4.3 0-22.5-18.3-40.9-40.9-40.9h-40C22 77.3 3.6 95.6 3.6 118.2c0 2.4 1.9 4.3 4.3 4.3zm36.6-36.6h40c16.4 0 29.9 12.2 32 28h-104c2.1-15.7 15.6-28 32-28z"/></symbol></svg>